<?xml version="1.0" encoding="UTF-8" standalone="no"?>
<svg
   xmlns:dc="http://purl.org/dc/elements/1.1/"
   xmlns:cc="http://creativecommons.org/ns#"
   xmlns:rdf="http://www.w3.org/1999/02/22-rdf-syntax-ns#"
   xmlns:svg="http://www.w3.org/2000/svg"
   xmlns="http://www.w3.org/2000/svg"
   xmlns:sodipodi="http://sodipodi.sourceforge.net/DTD/sodipodi-0.dtd"
   xmlns:inkscape="http://www.inkscape.org/namespaces/inkscape"
   sodipodi:docname="time-table.svg"
   inkscape:version="1.0 (4035a4fb49, 2020-05-01)"
   id="svg8"
   version="1.1"
   viewBox="0 0 136.52499 58.208334"
   height="58.208332mm"
   width="136.52499mm">
  <defs
     id="defs2" />
  <sodipodi:namedview
     inkscape:window-maximized="1"
     inkscape:window-y="-8"
     inkscape:window-x="1358"
     inkscape:window-height="745"
     inkscape:window-width="1366"
     showgrid="false"
     inkscape:document-rotation="0"
     inkscape:current-layer="g139"
     inkscape:document-units="mm"
     inkscape:cy="96.551421"
     inkscape:cx="300.44052"
     inkscape:zoom="0.7"
     inkscape:pageshadow="2"
     inkscape:pageopacity="0.0"
     borderopacity="1.0"
     bordercolor="#666666"
     pagecolor="#ffffff"
     id="base" />
  <metadata
     id="metadata5">
    <rdf:RDF>
      <cc:Work
         rdf:about="">
        <dc:format>image/svg+xml</dc:format>
        <dc:type
           rdf:resource="http://purl.org/dc/dcmitype/StillImage" />
        <dc:title></dc:title>
      </cc:Work>
    </rdf:RDF>
  </metadata>
  <g
     transform="translate(111.56243,-85.084647)"
     id="layer1"
     inkscape:groupmode="layer"
     inkscape:label="Layer 1">
    <g
       transform="matrix(0.26458333,0,0,0.26458333,-186.73638,34.960579)"
       id="g139">
      <path
         d="m 983.061,368.72265 h -482 a 17.02412,17.02412 0 0 0 -17,17 v 186 a 17.02411,17.02411 0 0 0 17,17 h 482 a 17.0241,17.0241 0 0 0 17,-17 v -186 a 17.02411,17.02411 0 0 0 -17,-17 z m 15,203 a 15.01828,15.01828 0 0 1 -15,15 h -482 a 15.01828,15.01828 0 0 1 -15,-15 v -186 a 15.01828,15.01828 0 0 1 15,-15 h 482 a 15.01828,15.01828 0 0 1 15,15 z"
         transform="translate(-199.93898,-179.27735)"
         fill="#3f3d56"
         id="path95" />
      <path
         d="m 588.5747,536.72265 a 58,58 0 1 1 58,-58 58.06566,58.06566 0 0 1 -58,58 z m 0,-114 a 56,56 0 1 0 56,56 56.06353,56.06353 0 0 0 -56,-56 z"
         transform="translate(-199.93898,-179.27735)"
         fill="#3f3d56"
         id="path97" />
      <path
         d="m 940.04724,441.72265 h -231 a 12.4967,12.4967 0 0 0 -12.48,12.01 4.01078,4.01078 0 0 0 -0.02,0.49 12.51762,12.51762 0 0 0 12.5,12.5 h 231 a 12.5,12.5 0 0 0 0,-25 z"
         transform="translate(-199.93898,-179.27735)"
         fill="#6c63ff"
         id="path99" />
      <path
         d="m 940.04724,490.72265 h -231 a 12.4967,12.4967 0 0 0 -12.48,12.01 4.01078,4.01078 0 0 0 -0.02,0.49 12.51762,12.51762 0 0 0 12.5,12.5 h 231 a 12.5,12.5 0 0 0 0,-25 z"
         transform="translate(-199.93898,-179.27735)"
         fill="#6c63ff"
         id="path101" />
      <path
         d="m 582.10406,504.06438 a 7.45991,7.45991 0 0 1 -4.48864,-1.491 l -0.0803,-0.0603 -16.904,-12.94229 a 7.5100616,7.5100616 0 1 1 9.13524,-11.92273 l 10.94913,8.39563 25.87453,-33.74415 a 7.50978,7.50978 0 0 1 10.52941,-1.38993 l -0.16087,0.21843 0.165,-0.21525 a 7.51849,7.51849 0 0 1 1.38994,10.52948 l -30.43459,39.6912 a 7.5131,7.5131 0 0 1 -5.97488,2.93088 z"
         transform="translate(-199.93898,-179.27735)"
         fill="#6c63ff"
         id="path103" />
    </g>
  </g>
</svg>
